# xmcd CD database file
#
# Track frame offsets:
#        150
#        10789
#        26611
#        38549
#        57072
#        70975
#        84612
#        103688
#        118953
#        139785
#        160814
#
# Disc length: 2315 seconds
#
# Revision: 0
# Processed by: cddbd v1.5.2PL0 Copyright (c) Steve Scherf et al.
# Submitted via: CUERipper 2.1.6
#
DISCID=8a09090b
DTITLE=Catherine Britt - Catherine Britt and The Cold, Cold Hearts
DYEAR=2018
DGENRE=Country
TTITLE0=Red Dirt
TTITLE1=Too Hot To Just Quit
TTITLE2=Met My Match
TTITLE3=The River and The Gum
TTITLE4=Troubled Kind
TTITLE5=Where You Gonna Go
TTITLE6=Young In All The Wrong Ways
TTITLE7=I'm Not Ready
TTITLE8=Bush TV
TTITLE9=I Like Trains
TTITLE10=Coalmine
EXTD=
EXTT0=
EXTT1=
EXTT2=
EXTT3=
EXTT4=
EXTT5=
EXTT6=
EXTT7=
EXTT8=
EXTT9=
EXTT10=
PLAYORDER=
